<svg height="464pt" fill="#332fad" viewBox="-8 0 464 464" width="464pt" xmlns="http://www.w3.org/2000/svg"><path d="m159.433594 338.503906 24-24c-3.628906-1.847656-6.953125-4.238281-9.859375-7.089844l11.3125-11.308593c9.375 9.378906 24.578125 9.378906 33.953125 0 3.125-3.125 8.1875-3.125 11.3125 0l33.945312 33.933593c3.160156 3.035157 8.148438 3.035157 11.308594 0 3.125-3.125 3.125-8.1875 0-11.3125l-62.71875-62.726562h-27.3125l-71.199219 71.199219 28.28125 28.289062zm0 0"/><path d="m272.574219 270.625 11.308593-11.304688 67.878907 67.886719-11.308594 11.304688zm0 0"/><path d="m159.425781 383.769531 22.636719-22.625 11.3125 11.3125-22.632812 22.621094c-3.125 3.128906-3.125 8.195313 0 11.320313 3.128906 3.128906 8.195312 3.128906 11.320312 0l22.625-22.621094 11.3125 11.300781-22.625 22.625c-2.894531 3.136719-2.820312 7.992187.171875 11.035156 2.988281 3.046875 7.84375 3.207031 11.027344.367188l.074219-.089844 16.503906-16.441406 6.183594-6.183594 11.3125 11.3125-6.167969 6.152344-16.480469 16.480469-.113281.089843c-3.023438 3.132813-2.984375 8.113281.089843 11.199219 3.15625 3.058594 8.171876 3.058594 11.328126 0l2.398437-2.402344c-1.90625-6.960937-.539063-14.414062 3.714844-20.25 4.253906-5.832031 10.9375-9.410156 18.148437-9.714844.421875-12.273437 10.332032-22.09375 22.609375-22.402343.417969-12.347657 10.277344-22.292969 22.625-22.816407.3125-7.222656 3.902344-13.910156 9.75-18.164062 5.851563-4.253906 13.320313-5.605469 20.289063-3.675781l2.398437-2.398438-70.597656-70.480469 28.078125 28.078126c9.371094 9.375 9.371094 24.566406 0 33.9375-9.496094 9.066406-24.445312 9.066406-33.941406 0l-28.855469-28.847657c-6.640625 4.335938-14.425781 6.589844-22.355469 6.472657l-36.453125 36.535156-16.96875 16.976562c-3.125 3.125-3.125 8.1875 0 11.3125.101563.101563.246094.136719.359375.230469h10.585938c.109375-.113281.230468-.144531.335937-.246094zm0 0"/><path d="m40.640625 264.972656 79.195313-79.195312 33.941406 33.941406-79.195313 79.195312zm0 0"/><path d="m91.5625 304.582031 67.859375-67.90625 11.316406 11.3125-67.859375 67.902344zm0 0"/><path d="m258.398438 437.503906c-3.167969-2.796875-7.964844-2.644531-10.949219.34375-2.988281 2.988282-3.136719 7.785156-.335938 10.953125l11.285157 11.335938c3.164062 3.023437 8.148437 3.023437 11.3125 0 1.5-1.5 2.34375-3.535157 2.34375-5.65625.011718-2.121094-.835938-4.15625-2.34375-5.648438zm0 0"/><path d="m144 160v16h256c1.394531-.03125 2.765625-.386719 4-1.039062l28-16v209.039062c0 4.417969-3.582031 8-8 8h-70.558594c-1.121094-2.371094-2.636718-4.535156-4.480468-6.398438l-8.480469-8.402343 5.679687-5.679688c0-.078125 0-.078125.078125-.160156l16.800781-16.878906 5.679688 5.679687c1.5 1.511719 3.550781 2.347656 5.679688 2.320313 2.128906.011719 4.171874-.824219 5.679687-2.320313l45.203125-45.28125c1.523438-1.464844 2.390625-3.484375 2.398438-5.597656-.007813-2.140625-.871094-4.183594-2.398438-5.679688l-101.839844-101.839843c-3.179687-2.960938-8.105468-2.960938-11.28125 0l-45.28125 45.277343c-3.101562 3.121094-3.101562 8.160157 0 11.28125l5.679688 5.679688-15.277344 15.28125-12.242188 2.398438-23.359374-23.359376c-1.523438-1.472656-3.558594-2.304687-5.679688-2.320312h-30.640625l-14.640625-14.640625c3.101562-3.121094 3.101562-8.160156 0-11.28125l-45.199219-45.277344c-3.152343-3.09375-8.203125-3.09375-11.359375 0l-90.480468 90.480469c-1.492188 1.511719-2.324219 3.554688-2.320313 5.679688-.019531 2.128906.816406 4.175781 2.320313 5.679687l45.28125 45.28125c1.488281 1.476563 3.5 2.308594 5.597656 2.316406 2.125-.007812 4.160156-.839843 5.679687-2.316406l51.921875 51.917969c-1.226562 2.566406-1.988281 5.328125-2.238281 8.160156h-105.921875c-4.417969 0-8-3.582031-8-8v-209.039062l28 16c1.234375.652343 2.605469 1.007812 4 1.039062h48v-16h-45.839844l-50.160156-28.640625v-67.359375h448v67.359375l-50.160156 28.640625zm0 0"/><path d="m304 48h-16v-32h-128v32h-16v-40c0-4.417969 3.582031-8 8-8h144c4.417969 0 8 3.582031 8 8zm0 0"/><path d="m337.601562 392.246094c3.121094-3.121094 3.121094-8.1875 0-11.308594l-11.289062-11.335938c-3.125-3.128906-8.191406-3.128906-11.316406-.003906-3.125 3.121094-3.128906 8.1875-.003906 11.3125l11.3125 11.3125c3.113281 3.121094 8.167968 3.132813 11.296874.023438zm0 0"/><path d="m292.367188 437.503906c1.503906-1.5 2.347656-3.535156 2.347656-5.660156 0-2.121094-.84375-4.160156-2.347656-5.660156l-11.3125-11.3125c-1.5-1.5-3.53125-2.34375-5.65625-2.34375-2.121094-.007813-4.15625.835937-5.644532 2.34375-1.503906 1.5-2.347656 3.539062-2.347656 5.660156 0 2.125.84375 4.160156 2.347656 5.660156l11.308594 11.3125c3.125 3.117188 8.183594 3.117188 11.304688 0zm0 0"/><path d="m314.984375 414.871094c1.511719-1.492188 2.359375-3.53125 2.351563-5.65625 0-2.121094-.84375-4.15625-2.34375-5.65625l-11.3125-11.3125c-3.140626-3.03125-8.128907-2.988282-11.214844.097656-3.085938 3.085938-3.128906 8.078125-.097656 11.214844l11.3125 11.3125c3.160156 3.023437 8.144531 3.023437 11.304687 0zm0 0"/><path d="m283.882812 236.6875 33.9375-33.941406 90.511719 90.507812-33.941406 33.941406zm0 0"/><path d="m32 408h-16v48c0 4.417969 3.582031 8 8 8h80v-16h-72zm0 0"/><path d="m120 448h16v16h-16zm0 0"/><path d="m152 448h16v16h-16zm0 0"/><path d="m424 448h-72v16h80c4.417969 0 8-3.582031 8-8v-48h-16zm0 0"/><path d="m320 448h16v16h-16zm0 0"/></svg>