<svg xmlns="http://www.w3.org/2000/svg" width="40.084" height="40.084" viewBox="0 0 40.084 40.084">
  <g id="artificial-intelligence" transform="translate(-0.001)">
    <path id="Path_394" data-name="Path 394" d="M255.7,212.35h9.771a11.924,11.924,0,0,0,.611-2.349h-9.3A5.976,5.976,0,0,1,255.7,212.35Z" transform="translate(-235.681 -193.56)"/>
    <path id="Path_395" data-name="Path 395" d="M154.524,150a3.523,3.523,0,1,0,3.523,3.523A3.518,3.518,0,0,0,154.524,150Zm1.174,4.7H153.35V152.35H155.7Z" transform="translate(-139.178 -138.258)"/>
    <path id="Path_396" data-name="Path 396" d="M9.474,15.266a5.874,5.874,0,0,1,5.872-5.872H29.79A14.078,14.078,0,0,0,2.921,17.756L0,22.641l4.776,3.406v6.835h4.7v7.2H25.915V35.214a38.25,38.25,0,0,1,2.959-14.076H15.346a5.874,5.874,0,0,1-5.872-5.872Z" transform="translate(0 0)"/>
    <path id="Path_397" data-name="Path 397" d="M256.78,152.35h9.512a13.037,13.037,0,0,0-.211-2.349H255.7A5.976,5.976,0,0,1,256.78,152.35Z" transform="translate(-235.681 -138.258)"/>
    <path id="Path_398" data-name="Path 398" d="M385.682,36.7a3.5,3.5,0,0,0,1.513.342,3.524,3.524,0,1,0,0-7.046,3.522,3.522,0,0,0-3.181,5.036L382,37.047h-1.5a11.134,11.134,0,0,1,.611,2.349h1.879Z" transform="translate(-350.712 -27.652)"/>
    <path id="Path_399" data-name="Path 399" d="M391.061,154.7a3.528,3.528,0,0,0,3.321,2.349,3.524,3.524,0,1,0,0-7.046,3.528,3.528,0,0,0-3.321,2.349h-2.551a13.037,13.037,0,0,1-.212,2.349Z" transform="translate(-357.899 -138.258)"/>
    <path id="Path_400" data-name="Path 400" d="M368.8,242.35h2.419l2.01,2.01a3.522,3.522,0,0,0,3.181,5.036,3.524,3.524,0,1,0,0-7.046,3.5,3.5,0,0,0-1.513.342L372.207,240h-2.49C369.544,240.636,369.276,241.043,368.8,242.35Z" transform="translate(-339.927 -221.212)"/>
  </g>
</svg>
