<svg xmlns="http://www.w3.org/2000/svg" width="40.294" height="40.304" viewBox="0 0 40.294 40.304">
  <path id="circuit" d="M38.161,22.79a4.239,4.239,0,0,0-5.312,1.859l-3.556-1.465a2.049,2.049,0,0,0-3.681-1.516l-3.7-1.522,3.689-1.537a2.05,2.05,0,0,0,3.675-1.531L32.829,15.6a4.238,4.238,0,1,0-.377-.908L28.9,16.171A2.051,2.051,0,0,0,25.226,17.7l-3.688,1.536,1.521-3.693a2.016,2.016,0,0,0,.3.023,2.05,2.05,0,0,0,1.212-3.7l1.466-3.558a4.234,4.234,0,1,0-.909-.374l-1.465,3.556a2.05,2.05,0,0,0-1.516,3.681l-1.522,3.7-1.537-3.689A2.05,2.05,0,0,0,17.562,11.5L16.083,7.95a4.246,4.246,0,1,0-.907.378l1.479,3.551a2.051,2.051,0,0,0,1.531,3.676l1.536,3.688-3.693-1.521a2.05,2.05,0,0,0-3.681-1.516L8.789,14.74a4.228,4.228,0,1,0-.373.909l3.555,1.464a2.05,2.05,0,0,0,3.681,1.516l3.7,1.522-3.689,1.537a2.05,2.05,0,0,0-3.675,1.531L8.433,24.7a4.234,4.234,0,1,0,.378.907l3.551-1.479A2.05,2.05,0,0,0,16.037,22.6l3.688-1.536L18.2,24.752a2.05,2.05,0,0,0-1.516,3.681l-1.465,3.558a4.234,4.234,0,1,0,.909.374L17.6,28.81a2.021,2.021,0,0,0,.3.023,2.049,2.049,0,0,0,1.212-3.7l1.522-3.7,1.537,3.689A2.049,2.049,0,0,0,23.7,28.8l1.479,3.55a4.233,4.233,0,1,0,.907-.378l-1.479-3.551a2.05,2.05,0,0,0-1.531-3.675l-1.536-3.688,3.693,1.521a2.049,2.049,0,0,0,3.681,1.516l3.558,1.466a4.233,4.233,0,1,0,5.687-2.768Zm0,0" transform="translate(-0.489 0.003)"/>
</svg>
