<svg xmlns="http://www.w3.org/2000/svg" width="14.708" height="20.972" viewBox="0 0 14.708 20.972">
  <g id="grade" transform="translate(-76.16)" style="isolation: isolate">
    <path id="Path_360" data-name="Path 360" d="M87.645,3.84a.617.617,0,0,1-.617-.617V0H76.695a.535.535,0,0,0-.535.535v19.9a.535.535,0,0,0,.535.535H90.334a.535.535,0,0,0,.535-.535V3.84ZM80.589,7.873l2.363-5.228a.617.617,0,0,1,1.124,0l2.363,5.228a.617.617,0,0,1-1.124.508l-.538-1.19H82.252l-.538,1.19a.617.617,0,0,1-1.124-.508ZM82.651,17.8H79.073a.617.617,0,1,1,0-1.234h3.578a.617.617,0,0,1,0,1.234Zm0-4.744H79.073a.617.617,0,1,1,0-1.234h3.578a.617.617,0,0,1,0,1.234ZM88.391,16.9l-1.45,1.45a.617.617,0,0,1-.873,0l-.864-.864a.617.617,0,0,1,.873-.872l.427.427,1.013-1.013a.617.617,0,1,1,.873.872Zm0-5.268-1.45,1.45a.617.617,0,0,1-.873,0l-.864-.864a.617.617,0,1,1,.873-.872l.427.427,1.013-1.013a.617.617,0,0,1,.873.872Z"/>
    <path id="Path_361" data-name="Path 361" d="M238.565,106.92l-.7,1.56h1.41Z" transform="translate(-155.051 -102.523)"/>
    <path id="Path_362" data-name="Path 362" d="M370.46,21.21v1.734h1.734Z" transform="translate(-282.198 -20.338)"/>
  </g>
</svg>
