<svg xmlns="http://www.w3.org/2000/svg" width="18.941" height="18.968" viewBox="0 0 18.941 18.968">
  <g id="Group_50" data-name="Group 50" transform="translate(-84 -319.968)">
    <g id="line-chart_1_" data-name="line-chart (1)" transform="translate(84 319.958)">
      <g id="Group_49" data-name="Group 49" transform="translate(3.983 0.895)">
        <path id="Path_343" data-name="Path 343" d="M329.784,29.283a.286.286,0,0,1-.235-.448l4.268-6.212a.286.286,0,1,1,.471.324l-4.268,6.212A.285.285,0,0,1,329.784,29.283Z" transform="translate(-320.924 -22.499)"/>
        <path id="Path_344" data-name="Path 344" d="M222.054,100.462a.285.285,0,0,1-.178-.062l-4.268-3.392a.286.286,0,1,1,.356-.448l4.268,3.392a.286.286,0,0,1-.178.51Z" transform="translate(-213.193 -93.679)"/>
        <path id="Path_345" data-name="Path 345" d="M104.786,100.462a.286.286,0,0,1-.177-.51l4.306-3.392a.286.286,0,1,1,.354.449l-4.306,3.392A.285.285,0,0,1,104.786,100.462Z" transform="translate(-104.5 -93.678)"/>
      </g>
      <circle id="Ellipse_29" data-name="Ellipse 29" cx="1" cy="1" r="1" transform="translate(15.97 0.01)"/>
      <circle id="Ellipse_30" data-name="Ellipse 30" cx="1" cy="1" r="1" transform="translate(11.97 6.01)"/>
      <circle id="Ellipse_31" data-name="Ellipse 31" cx="1" cy="1" r="1" transform="translate(7.97 3.01)"/>
      <circle id="Ellipse_32" data-name="Ellipse 32" cx="1" cy="1" r="1" transform="translate(2.97 6.01)"/>
      <path id="Path_350" data-name="Path 350" d="M9.775,17.607H18.56a.381.381,0,0,1,.381.381v.572a.381.381,0,0,1-.381.381H.572A.573.573,0,0,1,0,18.369V.381A.381.381,0,0,1,.381,0H.953a.381.381,0,0,1,.381.381V17.607H9.775Z" transform="translate(0 0.038)"/>
      <path id="Path_351" data-name="Path 351" d="M1.143,18.941H.572A.573.573,0,0,1,0,18.369V.381A.381.381,0,0,1,.381,0H.953A.381.381,0,0,0,.572.381V18.369a.573.573,0,0,0,.572.572Z" transform="translate(0 0.038)"/>
      <path id="Path_352" data-name="Path 352" d="M90.524,289.335H89.381a.381.381,0,0,1-.381-.381v-4.573a.381.381,0,0,1,.381-.381h1.143a.381.381,0,0,1,.381.381v4.573A.381.381,0,0,1,90.524,289.335Z" transform="translate(-85.608 -273.139)"/>
      <path id="Path_353" data-name="Path 353" d="M201.524,203.727h-1.143a.381.381,0,0,1-.381-.381v-7.965a.381.381,0,0,1,.381-.381h1.143a.381.381,0,0,1,.381.381v7.965A.381.381,0,0,1,201.524,203.727Z" transform="translate(-192.378 -187.53)"/>
      <path id="Path_354" data-name="Path 354" d="M313.524,289.335h-1.143a.381.381,0,0,1-.381-.381v-4.573a.381.381,0,0,1,.381-.381h1.143a.381.381,0,0,1,.381.381v4.573A.381.381,0,0,1,313.524,289.335Z" transform="translate(-300.11 -273.139)"/>
      <path id="Path_355" data-name="Path 355" d="M425.524,132.547h-1.143a.381.381,0,0,1-.381-.381V121.381a.381.381,0,0,1,.381-.381h1.143a.381.381,0,0,1,.381.381v10.785A.381.381,0,0,1,425.524,132.547Z" transform="translate(-407.841 -116.351)"/>
      <path id="Path_356" data-name="Path 356" d="M90.143,289.335h-.762a.381.381,0,0,1-.381-.381v-4.573a.381.381,0,0,1,.381-.381h.762a.381.381,0,0,0-.381.381v4.573A.381.381,0,0,0,90.143,289.335Z" transform="translate(-85.608 -273.139)"/>
      <path id="Path_357" data-name="Path 357" d="M201.143,203.727h-.762a.381.381,0,0,1-.381-.381v-7.965a.381.381,0,0,1,.381-.381h.762a.381.381,0,0,0-.381.381v7.965A.381.381,0,0,0,201.143,203.727Z" transform="translate(-192.378 -187.53)"/>
      <path id="Path_358" data-name="Path 358" d="M313.143,289.335h-.762a.381.381,0,0,1-.381-.381v-4.573a.381.381,0,0,1,.381-.381h.762a.381.381,0,0,0-.381.381v4.573A.381.381,0,0,0,313.143,289.335Z" transform="translate(-300.11 -273.139)"/>
      <path id="Path_359" data-name="Path 359" d="M425.143,132.547h-.762a.381.381,0,0,1-.381-.381V121.381a.381.381,0,0,1,.381-.381h.762a.381.381,0,0,0-.381.381v10.785A.381.381,0,0,0,425.143,132.547Z" transform="translate(-407.841 -116.351)"/>
    </g>
  </g>
</svg>
