<svg id="Group_56" data-name="Group 56" xmlns="http://www.w3.org/2000/svg" width="14.954" height="14.954" viewBox="0 0 14.954 14.954">
  <path id="Path_386" data-name="Path 386" d="M63.477,70.954a7.477,7.477,0,1,1,7.477-7.477A7.486,7.486,0,0,1,63.477,70.954Zm0-13.833a6.356,6.356,0,1,0,6.356,6.356A6.363,6.363,0,0,0,63.477,57.122Zm0,0" transform="translate(-56 -56)" fill="#fff"/>
  <path id="Path_387" data-name="Path 387" d="M196.206,162.627a.542.542,0,0,1-.542-.542V160.67a.542.542,0,0,1,.542-.542,1.157,1.157,0,1,0-1.157-1.157.542.542,0,1,1-1.084,0,2.241,2.241,0,1,1,2.783,2.174v.94a.542.542,0,0,1-.542.542Zm0,0" transform="translate(-188.728 -152.876)" fill="#fff"/>
  <path id="Path_388" data-name="Path 388" d="M237.818,333.137a.708.708,0,1,1-.708-.708A.708.708,0,0,1,237.818,333.137Zm0,0" transform="translate(-229.633 -322.057)" fill="#fff"/>
</svg>
