<svg xmlns="http://www.w3.org/2000/svg" width="20.138" height="20.138" viewBox="0 0 20.138 20.138">
  <g id="meeting" style="isolation: isolate">
    <path id="Path_376" data-name="Path 376" d="M3.776,5.405V1.629A2.234,2.234,0,0,1,3.86,1H1.468A1.475,1.475,0,0,0,0,2.468V6.244A1.475,1.475,0,0,0,1.468,7.713h.31L2.853,9.139a.648.648,0,0,0,.478.252h.025a.6.6,0,0,0,.47-.218L5.085,7.738A2.757,2.757,0,0,1,3.776,5.405Z" transform="translate(0 -0.161)"/>
    <path id="Path_377" data-name="Path 377" d="M21.556,1H19.165a2.234,2.234,0,0,1,.084.629V5.405A2.757,2.757,0,0,1,17.94,7.738L19.2,9.173a.6.6,0,0,0,.47.218h.025a.648.648,0,0,0,.478-.252l1.066-1.426h.319a1.475,1.475,0,0,0,1.468-1.468V2.468A1.475,1.475,0,0,0,21.556,1Z" transform="translate(-2.887 -0.161)"/>
    <path id="Path_378" data-name="Path 378" d="M11.035,8.391h-.023a.632.632,0,0,1-.48-.252L9.461,6.713H7.468A1.47,1.47,0,0,1,6,5.244V1.468A1.47,1.47,0,0,1,7.468,0H14.6a1.47,1.47,0,0,1,1.468,1.468V5.244A1.47,1.47,0,0,1,14.6,6.713H12.788l-1.28,1.463a.628.628,0,0,1-.473.215Z" transform="translate(-0.965)"/>
    <circle id="Ellipse_33" data-name="Ellipse 33" cx="1.5" cy="1.5" r="1.5" transform="translate(2.069 11.069)"/>
    <path id="Path_379" data-name="Path 379" d="M5.6,18.336a3.516,3.516,0,0,0-1.4,2.811v.21H.629A.634.634,0,0,1,0,20.727v-.42A2.306,2.306,0,0,1,2.307,18h2.1A2.292,2.292,0,0,1,5.6,18.336Z" transform="translate(0 -2.896)"/>
    <circle id="Ellipse_34" data-name="Ellipse 34" cx="1.5" cy="1.5" r="1.5" transform="translate(15.069 11.069)"/>
    <path id="Path_380" data-name="Path 380" d="M22.927,20.307v.42a.634.634,0,0,1-.629.629H18.731v-.21a3.516,3.516,0,0,0-1.4-2.811A2.292,2.292,0,0,1,18.522,18h2.1A2.306,2.306,0,0,1,22.927,20.307Z" transform="translate(-2.789 -2.896)"/>
    <circle id="Ellipse_35" data-name="Ellipse 35" cx="2.517" cy="2.517" r="2.517" transform="translate(7.552 9.65)"/>
    <path id="Path_381" data-name="Path 381" d="M13.422,19H8.807A2.309,2.309,0,0,0,6.5,21.307v1.259a.63.63,0,0,0,.629.629H15.1a.63.63,0,0,0,.629-.629V21.307A2.309,2.309,0,0,0,13.422,19Z" transform="translate(-1.046 -3.057)"/>
  </g>
</svg>
