<svg xmlns="http://www.w3.org/2000/svg" width="18.493" height="18.493" viewBox="0 0 18.493 18.493">
  <g id="resources" transform="translate(-0.001)" style="isolation: isolate">
    <g id="Group_53" data-name="Group 53" transform="translate(9.103 3.612)">
      <g id="Group_52" data-name="Group 52">
        <path id="Path_383" data-name="Path 383" d="M252.361,100a.361.361,0,1,0,.361.361A.361.361,0,0,0,252.361,100Z" transform="translate(-252 -99.999)"/>
      </g>
    </g>
    <g id="Group_55" data-name="Group 55" transform="translate(0.001)">
      <g id="Group_54" data-name="Group 54">
        <path id="Path_384" data-name="Path 384" d="M18.22,7.6l-1.348-.337a7.463,7.463,0,0,0-.916-2.219l.713-1.188a.361.361,0,0,0-.054-.441L15.083,1.878a.361.361,0,0,0-.441-.054l-1.188.713a7.464,7.464,0,0,0-2.219-.916L10.9.274A.361.361,0,0,0,10.548,0H8.38a.361.361,0,0,0-.35.274L7.689,1.637a7.465,7.465,0,0,0-2.19.915L4.287,1.824a.361.361,0,0,0-.441.054L2.313,3.411a.361.361,0,0,0-.054.441L3,5.084a7.456,7.456,0,0,0-.887,2.161L.708,7.6a.361.361,0,0,0-.274.35v2.167a.361.361,0,0,0,.274.35l1.419.355A7.487,7.487,0,0,0,3,12.937L1.041,14.9h0l-.51.511a1.806,1.806,0,1,0,2.553,2.554l.511-.511h0l1.962-1.962a7.494,7.494,0,0,0,2.118.876l.355,1.419a.361.361,0,0,0,.35.274h2.167a.361.361,0,0,0,.35-.274l.351-1.4A7.468,7.468,0,0,0,13.41,15.5l1.232.739a.361.361,0,0,0,.441-.054l1.533-1.533a.361.361,0,0,0,.054-.441l-.728-1.213a7.459,7.459,0,0,0,.915-2.19l1.363-.341a.361.361,0,0,0,.274-.35V7.946A.361.361,0,0,0,18.22,7.6ZM2.573,17.453a1.083,1.083,0,1,1-1.532-1.532l.255-.255L2.829,17.2Zm2.679-2.678,0,0L3.339,16.687,1.807,15.154l1.911-1.911h0l1.555-1.555,0,0L6.531,10.43a3.26,3.26,0,0,0,1.532,1.533L6.808,13.218l0,0Zm5.1-6.172a.361.361,0,0,0-.457-.457L6.938,9.13c0-.033,0-.067,0-.1a2.528,2.528,0,1,1,2.528,2.528l-.1,0Zm-1.68,2.755-.054.054A2.532,2.532,0,0,1,7.083,9.879l.054-.054,2.3-.766Zm9.1-1.526h0l-1.305.326a.361.361,0,0,0-.266.276,6.749,6.749,0,0,1-.984,2.355.361.361,0,0,0-.009.386l.7,1.163-1.134,1.134-1.18-.708a.361.361,0,0,0-.382.007,6.757,6.757,0,0,1-2.329.955.361.361,0,0,0-.278.266l-.337,1.346h-1.6l-.34-1.36a.361.361,0,0,0-.275-.266,6.789,6.789,0,0,1-1.963-.748L7.13,13.918a5.417,5.417,0,1,0,4.238-9.961.361.361,0,1,0-.255.676,4.7,4.7,0,1,1-3.437,8.738l1.153-1.153A3.249,3.249,0,1,0,6.275,9.664L5.123,10.817A4.694,4.694,0,0,1,7.814,4.633a.361.361,0,1,0-.255-.676,5.416,5.416,0,0,0-2.984,7.407L3.53,12.409a6.785,6.785,0,0,1-.748-1.963.361.361,0,0,0-.266-.275l-1.36-.34v-1.6L2.5,7.892a.361.361,0,0,0,.266-.278,6.745,6.745,0,0,1,.955-2.329A.361.361,0,0,0,3.731,4.9l-.708-1.18L4.157,2.589l1.163.7a.361.361,0,0,0,.386-.009A6.754,6.754,0,0,1,8.06,2.293a.361.361,0,0,0,.276-.266L8.663.722h1.6l.323,1.291a.361.361,0,0,0,.279.266,6.755,6.755,0,0,1,2.383.983.361.361,0,0,0,.384.008l1.137-.682,1.134,1.134L15.223,4.86a.361.361,0,0,0,.008.384,6.754,6.754,0,0,1,.983,2.383.361.361,0,0,0,.266.279l1.291.323Z" transform="translate(-0.001)"/>
      </g>
    </g>
  </g>
</svg>
