<svg xmlns="http://www.w3.org/2000/svg" width="21.112" height="23.559" viewBox="0 0 21.112 23.559">
  <g id="solid" transform="translate(-56 -32)" style="isolation: isolate">
    <path id="Path_363" data-name="Path 363" d="M56,146.91a.862.862,0,0,0,.431.745v-1.49A.862.862,0,0,0,56,146.91Z" transform="translate(0 -108.016)"/>
    <path id="Path_364" data-name="Path 364" d="M94.65,47.964V35.016H92.064a.431.431,0,0,1-.431-.431V32H80v3.331a.859.859,0,0,0,.4-.53.431.431,0,0,1,.835.215A1.722,1.722,0,0,1,80,36.254V39.64a.859.859,0,0,0,.4-.53.431.431,0,0,1,.835.215A1.722,1.722,0,0,1,80,40.563v3.386a.859.859,0,0,0,.4-.53.431.431,0,0,1,.835.215A1.722,1.722,0,0,1,80,44.872v2.955a.859.859,0,0,0,.4-.53.431.431,0,0,1,.835.215A1.722,1.722,0,0,1,80,48.749v2.209H92.9ZM83.016,35.878H92.5a.431.431,0,1,1,0,.862H83.016a.431.431,0,1,1,0-.862Zm0,2.585H92.5a.431.431,0,0,1,0,.862H83.016a.431.431,0,1,1,0-.862Zm0,2.585H92.5a.431.431,0,0,1,0,.862H83.016a.431.431,0,1,1,0-.862Zm3.447,6.032H83.016a.431.431,0,1,1,0-.862h3.447a.431.431,0,1,1,0,.862ZM92.5,44.5H83.016a.431.431,0,1,1,0-.862H92.5a.431.431,0,0,1,0,.862Z" transform="translate(-22.707)"/>
    <path id="Path_365" data-name="Path 365" d="M56,226.91a.862.862,0,0,0,.431.745v-1.49A.862.862,0,0,0,56,226.91Z" transform="translate(0 -183.707)"/>
    <path id="Path_366" data-name="Path 366" d="M348.3,56.988a.43.43,0,0,1,.126.3V69.2l.87-1.484a.436.436,0,0,1-.008-.083V56h-1.976l.988.988Z" transform="translate(-275.624 -22.707)"/>
    <path id="Path_367" data-name="Path 367" d="M312,43.314v1.545h1.545Z" transform="translate(-242.212 -10.705)"/>
    <path id="Path_368" data-name="Path 368" d="M56,298.91a.862.862,0,0,0,.431.745v-1.49A.862.862,0,0,0,56,298.91Z" transform="translate(0 -251.83)"/>
    <path id="Path_369" data-name="Path 369" d="M56,66.91a.862.862,0,0,0,.431.745v-1.49A.862.862,0,0,0,56,66.91Z" transform="translate(0 -32.325)"/>
    <path id="Path_370" data-name="Path 370" d="M297.182,458.876l.479-.372-.389-.228Z" transform="translate(-228.192 -403.317)"/>
    <path id="Path_371" data-name="Path 371" d="M0,0H11.2V.862H0Z" transform="translate(69.349 54.115) rotate(-59.616)"/>
    <path id="Path_372" data-name="Path 372" d="M429.857,217.779a.431.431,0,0,0-.59.154l-.218.372.743.436.218-.372A.431.431,0,0,0,429.857,217.779Z" transform="translate(-352.958 -175.717)"/>
    <path id="Path_373" data-name="Path 373" d="M0,0H.431V.862H0Z" transform="translate(75.45 43.702) rotate(-59.616)"/>
    <path id="Path_374" data-name="Path 374" d="M107.528,400H96v.862h11.023Z" transform="translate(-37.846 -348.18)"/>
    <path id="Path_375" data-name="Path 375" d="M357.795,371.284v-2.545l-1.492,2.545Z" transform="translate(-284.129 -318.603)"/>
  </g>
</svg>
