<svg height="512" fill="#332fad" viewBox="0 0 64 64" width="512" xmlns="http://www.w3.org/2000/svg"><g id="worldwide-global-network-connection-meeting"><path d="m13 42a9 9 0 0 0 -6.97 14.69 5 5 0 0 1 3.64-4.49 3.965 3.965 0 0 1 -.67-2.2v-2a4 4 0 0 1 8 0v2a3.965 3.965 0 0 1 -.67 2.2 5 5 0 0 1 3.64 4.49 9 9 0 0 0 -6.97-14.69z"/><path d="m15 54h-4a3.009 3.009 0 0 0 -3 3v1.48a8.984 8.984 0 0 0 10 0v-1.48a3.009 3.009 0 0 0 -3-3z"/><path d="m15 50v-2a2 2 0 0 0 -4 0v2a2 2 0 0 0 4 0z"/><path d="m38.98 33a30.925 30.925 0 0 1 -.62 5.43 15.556 15.556 0 0 1 3.36 2.17 12.779 12.779 0 0 0 3.23-7.6z"/><path d="m36.08 44.33a13.01 13.01 0 0 0 4.21-2.33 13.191 13.191 0 0 0 -2.43-1.59 14.7 14.7 0 0 1 -1.78 3.92z"/><path d="m32 39a12.723 12.723 0 0 0 -3.99.64c.98 3.33 2.54 5.36 3.99 5.36s3.01-2.03 3.99-5.36a12.723 12.723 0 0 0 -3.99-.64z"/><path d="m32 25a12.723 12.723 0 0 0 3.99-.64c-.98-3.33-2.54-5.36-3.99-5.36s-3.01 2.03-3.99 5.36a12.723 12.723 0 0 0 3.99.64z"/><path d="m15 12v-2a2 2 0 0 0 -4 0v2a2 2 0 0 0 4 0z"/><path d="m9.67 14.2a3.965 3.965 0 0 1 -.67-2.2v-2a4 4 0 0 1 8 0v2a3.965 3.965 0 0 1 -.67 2.2 5 5 0 0 1 3.64 4.49 9 9 0 1 0 -13.94 0 5 5 0 0 1 3.64-4.49z"/><path d="m37.86 23.59a13.191 13.191 0 0 0 2.43-1.59 13.01 13.01 0 0 0 -4.21-2.33 14.7 14.7 0 0 1 1.78 3.92z"/><path d="m26.14 40.41a12.791 12.791 0 0 0 -2.42 1.59 12.861 12.861 0 0 0 4.2 2.33 14.7 14.7 0 0 1 -1.78-3.92z"/><path d="m38.98 31h5.97a12.779 12.779 0 0 0 -3.23-7.6 15.556 15.556 0 0 1 -3.36 2.17 30.925 30.925 0 0 1 .62 5.43z"/><path d="m18 20.48v-1.48a3.009 3.009 0 0 0 -3-3h-4a3.009 3.009 0 0 0 -3 3v1.48a8.984 8.984 0 0 0 10 0z"/><path d="m47.67 14.2a3.965 3.965 0 0 1 -.67-2.2v-2a4 4 0 0 1 8 0v2a3.965 3.965 0 0 1 -.67 2.2 5 5 0 0 1 3.64 4.49 9 9 0 1 0 -13.94 0 5 5 0 0 1 3.64-4.49z"/><path d="m53 12v-2a2 2 0 0 0 -4 0v2a2 2 0 0 0 4 0z"/><path d="m36.47 26.31a14.824 14.824 0 0 1 -8.94 0 29.8 29.8 0 0 0 -.51 4.69h9.96a29.8 29.8 0 0 0 -.51-4.69z"/><path d="m53 54h-4a3.009 3.009 0 0 0 -3 3v1.48a8.984 8.984 0 0 0 10 0v-1.48a3.009 3.009 0 0 0 -3-3z"/><path d="m27.92 19.67a13.01 13.01 0 0 0 -4.21 2.33 13.191 13.191 0 0 0 2.43 1.59 14.7 14.7 0 0 1 1.78-3.92z"/><path d="m56 19a3.009 3.009 0 0 0 -3-3h-4a3.009 3.009 0 0 0 -3 3v1.48a8.984 8.984 0 0 0 10 0z"/><path d="m51 42a9 9 0 0 0 -6.97 14.69 5 5 0 0 1 3.64-4.49 3.965 3.965 0 0 1 -.67-2.2v-2a4 4 0 0 1 8 0v2a3.965 3.965 0 0 1 -.67 2.2 5 5 0 0 1 3.64 4.49 9 9 0 0 0 -6.97-14.69z"/><path d="m27.53 37.69a14.824 14.824 0 0 1 8.94 0 29.8 29.8 0 0 0 .51-4.69h-9.96a29.8 29.8 0 0 0 .51 4.69z"/><path d="m25.02 33h-5.97a12.779 12.779 0 0 0 3.23 7.6 15.556 15.556 0 0 1 3.36-2.17 30.925 30.925 0 0 1 -.62-5.43z"/><path d="m53 50v-2a2 2 0 0 0 -4 0v2a2 2 0 0 0 4 0z"/><path d="m25.02 31a30.925 30.925 0 0 1 .62-5.43 15.556 15.556 0 0 1 -3.36-2.17 12.779 12.779 0 0 0 -3.23 7.6z"/><path d="m27 11h2v2h-2z"/><path d="m31 11h2v2h-2z"/><path d="m35 11h2v2h-2z"/><path d="m27 51h2v2h-2z"/><path d="m31 51h2v2h-2z"/><path d="m35 51h2v2h-2z"/><path d="m11 27h2v2h-2z"/><path d="m11 31h2v2h-2z"/><path d="m11 35h2v2h-2z"/><path d="m51 27h2v2h-2z"/><path d="m51 31h2v2h-2z"/><path d="m51 35h2v2h-2z"/></g></svg>